# xmcd
#
# Track frame offsets:
#	150
#	17360
#	30618
#	47076
#	62988
#	77968
#	93145
#	112602
#	126071
#	146227
#
# Disc length: 2190 seconds
#
# Revision: 0
# Processed by: cddbd v1.5.2PL0 Copyright (c) Steve Scherf et al.
# Submitted via: EasyCDDAExtractor 8.2.3.1
#
DISCID=79088c0a
DTITLE=Benji Allen - Mother Nature_A Cold One And Me
DYEAR=1900
DGENRE=
TTITLE0=Beer Joint Baby
TTITLE1=Mother Nature
TTITLE2=Lone Star Cutie Pie
TTITLE3=Blue
TTITLE4=A Barb Upon A Wire
TTITLE5=Beautiful You
TTITLE6=Make Me Feel That Way Again
TTITLE7=This Bud's For You
TTITLE8=My Old Man
TTITLE9=Out In The Country
EXTD=
EXTT0=
EXTT1=
EXTT2=
EXTT3=
EXTT4=
EXTT5=
EXTT6=
EXTT7=
EXTT8=
EXTT9=
PLAYORDER=
